<svg width="207" height="206" viewBox="0 0 207 206" fill="none" xmlns="http://www.w3.org/2000/svg">
<path d="M85 181C82.68 181.33 71.42 182 64.18 179.68C59.2721 178.107 61.34 170.36 61.495 164.695C61.8482 151.785 68.66 145.02 68.505 138.855C68.2877 130.211 46.02 137.66 41.85 138.33C36.7948 139.142 32.36 141.32 28.015 143.825C24.0395 146.117 18.36 146.66 9.7 146.67C7.65322 146.672 6.36 145.68 5.185 144.35C0.193189 138.7 1 128.4 4.145 113.895C8.74751 92.6678 19.66 86.02 21.99 81.52C25.5079 74.7257 26.66 67.7 26.175 62.35C25.5802 55.7885 12.04 58.68 7.015 55.68C2.08275 52.7353 3 39.1 5.155 24.875C6.44326 16.3713 21.24 9.37997 35.95 4.34497C48.4136 0.0788841 62.92 0.999972 71.645 3.15497C81.0245 5.47164 79 25.64 81.49 39.445C83.0192 47.923 84.66 54.64 88.315 58.82C92.725 63.8634 101.3 60.34 111.29 56.685C117.845 54.2866 125.95 48.04 135.925 39.235C153.753 23.4979 158.3 18.68 165.47 17.17C170.18 16.1781 174.32 17.66 176.98 19.155C183.254 22.6811 188.3 31.96 199.79 54.905C206.705 68.7133 206 80.58 203.845 89.81C202.275 96.5361 190.4 102.62 166.455 108.32C130.987 116.763 126.68 110.33 124.185 111.49C121.418 112.776 121 118.3 121.165 123.795C121.327 129.198 124.66 132.98 136.28 142.13C144.969 148.972 148.98 151.32 153.485 157.805C157.167 163.106 156 175.24 154.84 184.975C154.069 191.443 149.02 194.98 142.36 199.65C139.549 201.621 135.36 202.99 130.37 204.16C128.075 204.698 126.04 203.68 124.36 202.68C115.03 197.126 109.36 182.36 104.355 180.17C97.01 180.99 91.7 183 87.015 181.175C86.01 180.67 85.02 180.34 82 179" stroke="#E34864" stroke-width="2" stroke-linecap="round"/>
</svg>
