<svg width="303" height="245" viewBox="0 0 303 245" fill="none" xmlns="http://www.w3.org/2000/svg">
<path d="M76 54.0001C68.08 53.0001 50.02 53.6601 45.185 56.3201C38.7034 59.8859 40 79.2201 41.325 88.1501C41.7638 91.1075 45.65 93.3201 49.305 95.6501C53.2066 98.1372 57.98 98.0001 61.64 97.6701C67.4518 97.146 71.64 91.3601 75.32 86.6851C77.6584 83.7144 79.99 79.69 81.49 74.375C83.2975 67.9706 81.34 62.35 79.845 59.3551C79.01 58.0101 78.02 57.0201 77.015 56.1801C76.01 55.3401 75.02 54.6801 73 54.0001" stroke="#E34864" stroke-width="2" stroke-linecap="round"/>
<path d="M138 19C137.34 19 133.04 29.89 127.04 49.03C122.947 62.0865 125.33 69.32 126.49 71.815C129.288 77.8338 138.3 78.66 150.12 78.835C158.842 78.9642 168.6 67.74 175.815 56.87C181.944 47.6367 180 28.46 175.69 9.39002C174.861 5.72146 172.04 4.04002 170.36 2.85502C167.614 0.917848 161.05 1.00002 153.055 1.49502C146.086 1.92652 143.68 9.64002 140.51 13.32C140 14.32 140 15.64 139.67 16.98C139.34 18.32 138.68 19.64 138 23" stroke="#E34864" stroke-width="2" stroke-linecap="round"/>
<path d="M116 103C113.35 103 106.04 103.66 99.19 106.155C96.0259 107.307 94.01 110.65 92.18 114.47C85.58 128.247 90.66 148.3 94.48 154.645C98.8678 161.933 110.62 160.66 118.805 158.515C127.932 156.123 129.98 142.38 133.49 129.215C134.661 124.825 133.67 121.68 132.84 119.185C130.01 115.34 124.04 112.68 117.05 110.185C114.02 109.01 112.04 108.02 108 105" stroke="#E34864" stroke-width="2" stroke-linecap="round"/>
<path d="M234 53.0001C232.01 53.3301 228.02 54.0001 223.52 56.8151C219.148 59.5497 211.73 72.5701 200.085 91.1951C183.099 118.362 183.34 129.62 184.49 136.975C186.436 149.418 211.94 153.98 225.78 155.665C232.558 156.49 239.96 153.68 248.435 149.865C258.715 145.237 267.62 135.38 277.59 123.925C290.31 109.311 296.65 95.3701 299.48 88.0551C302.202 81.0203 301.67 72.7101 300.18 63.7351C298.52 53.7381 292.03 44.7101 285.715 36.3951C274.001 20.9713 261.38 15.3601 248.38 12.5051C241.201 10.9285 236.68 19.9801 233.18 23.1551C229.35 27.6501 224.35 37.9301 221.52 49.0901C220.34 53.3201 219.68 54.6401 219 58.0001" stroke="#E34864" stroke-width="2" stroke-linecap="round"/>
<path d="M82 186C77.38 179.72 60.74 163.06 47.215 154.525C35.1411 146.906 20.7 151.66 15.185 154.155C9.812 156.586 7.02001 164.96 2.51501 180.935C-1.13571 193.881 2.32001 207.6 8.47001 222.61C11.687 230.462 18.64 234.98 23.795 238.475C28.2948 241.526 33.97 242.66 43.585 243.33C60.4317 244.504 75.62 241.01 84.105 238.85C91.1546 237.055 95.65 232.69 98.315 228.695C101.078 224.553 101.32 219.36 102.83 214.85C104.792 208.99 99.68 202.02 94.855 197.185C90.0372 192.357 84.36 191.02 79.185 188.01C78.01 187.34 77.02 186.68 76.51 185.35C76 184.02 76 182.04 75 179" stroke="#E34864" stroke-width="2" stroke-linecap="round"/>
<path d="M168 168C167.34 168 166.01 168 164.015 168.165C158.678 168.606 154.36 183.92 150.345 203.745C147.409 218.24 149.33 227.99 150.49 229.82C151.894 232.034 158.62 232 166.775 231.67C172.698 231.43 176.98 228.35 180.97 224.695C185.304 220.725 187.99 214.37 189.655 203.755C192.327 186.719 190.01 172.7 188.015 166.545C186.308 161.278 184.01 157.35 181.52 154.52C180.02 153.34 178.04 152.68 175.865 152.34C173.69 152 171.38 152 169 152" stroke="#E34864" stroke-width="2" stroke-linecap="round"/>
</svg>
