<svg width="280" height="296" viewBox="0 0 280 296" fill="none" xmlns="http://www.w3.org/2000/svg">
<path d="M156 146C158.63 144.68 172.93 140.68 190.36 138.515C200.814 137.217 214.72 137.34 223.84 137.5C244.448 137.862 256.94 145.3 265.64 151.975C276.406 160.235 278.66 182.28 278.835 192.795C278.99 202.1 274.02 208.64 269.855 213.98C263.508 222.118 253.7 218.66 221.8 218.505C204.39 218.42 200.02 213.34 196.015 211.175C190.417 208.149 176.1 196.4 165.195 191.34C163.493 190.55 161.7 191 160.025 191.66C152.946 194.449 149.36 201.64 145.845 206.98C141.214 214.015 138.34 224.3 136.175 230.145C133.992 236.039 131.04 255.5 125.185 272.96C122.732 280.276 116.04 286.96 110.85 290.99C104.822 295.671 87.1 295 77.19 293.84C69.9824 292.996 63.7 280.06 53.87 255.935C46.0128 236.652 48.34 226.38 48.165 212.22C47.9626 195.847 55 171.4 52.845 164.185C52.4325 162.804 51.02 162.02 49.685 161.345C40.4195 156.66 24.7 160.66 20.015 161.995C17.9926 162.571 16.01 163 14.015 162.835C9.7546 162.483 6.01999 158.68 3.17499 155.015C0.615638 151.718 1.33999 147.02 1.32999 130.565C1.32583 123.712 4.65999 120.02 6.98999 115.85C9.90546 110.632 11.32 105.02 14.49 94.375C16.4269 87.8706 18.32 80.36 20.99 72.695C22.7127 67.7496 25.98 63.36 30.98 58.35C35.2006 54.1209 41.64 53.68 49.46 52.17C57.1007 50.6946 62.99 52.66 64.985 54.32C71.9626 60.1259 70 76.62 68.675 85.635C67.4766 93.7885 57.7 98.64 49.7 102.985C36.6503 110.073 20.02 108.67 15.535 106.52C2.52942 100.285 2.67999 85.72 1.66499 65.58C1.24798 57.3055 8.61999 47.73 17.27 36.91C23.6814 28.8901 35.59 22.38 49.235 14.555C66.4824 4.66409 80.28 4.33997 89.96 2.33997C96.7842 0.930022 101.99 2.65997 104.15 4.31997C110.96 9.55392 110 24.94 108.84 36.46C107.518 49.5876 103 64.64 102.17 69.98C101.346 75.2797 100.67 78.99 100.665 80.49C100.645 86.5629 128.52 72.04 147.94 68.34C151.903 67.5849 155.92 68 158.62 71.63C171.946 89.5454 163.34 102.64 160.845 107.98C157.209 115.761 144.7 119.32 139.185 121.16C137.974 121.564 137.02 122.32 137.335 122.825C138.465 124.637 142.65 123.67 146.47 122.345C151.656 120.546 162.58 111.07 179.045 98.59C193.075 87.9557 205.29 84.34 214.925 83.34C226.483 82.1404 233.99 83.66 235.325 85.32C238.887 89.7494 228.02 95.32 223.355 99.315C216.6 105.1 209.38 109.62 200.865 115.98C193.671 121.353 189.02 122.32 185.845 125.82C182.639 129.354 178.02 130.66 171.525 134.815C167.01 138.33 163.02 140.32 158.85 143.32C157.68 144.32 156.36 145.64 153 148" stroke="#E34864" stroke-width="2" stroke-linecap="round"/>
</svg>
