<svg width="114" height="102" viewBox="0 0 114 102" fill="none" xmlns="http://www.w3.org/2000/svg">
<path d="M69 73c0 3 1 10-5 15-2 3-5 3-8 4-5 1-10 0-13-2-7-4-8-10-8-16 0-1 2-2 3-2 1 0 2 0 3 1 1 1 0 2-1 3-1 2-4 4-9 5-7 2-13 0-17-2-5-3-7-14-8-28 0-5 3-8 5-10 4-3 11-2 16-1 2 1 3 4 3 6 0 1 0 2-1 3-1 2-3 2-5 2-1 0-3 0-4-1-5-4-4-19-1-30 1-3 5-3 8-3 7-1 12 1 15 3 5 4 6 9 6 13 0 1-1 2-2 2-1 0-3 0-4-1-4-2-4-10-5-15-1-3 0-6 1-7 2-2 2-3 4-4 6-2 3-4 5-7 7-6 4-17 0-21-3-4-3-6-12-7-18 0-2 0-4-1-6-1-3-3-5-5-7-2-2-4-3-7-3-3 0-5 1-7 3-2 2-3 4-4 7-1 2-1 4-1 6-1 6-3 15-7 18-4 3-15 7-21 3-3-2-5-4-7-7-1-2-2-4-4-6-1-1-4-2-7-2-1 5-1 13-5 15-1 1-3 1-4 1-1 0-2-1-2-2 0-4 1-9 6-13 3-2 8-4 15-3 3 0 7 0 8 3 3 11 4 26-1 30-1 1-3 1-4 1-2 0-4 0-5-2-1-1-1-2-1-3 0-2 1-5 3-6 5-1 12-2 16 1 2 2 5 5 5 10-1 14-3 25-8 28-4 2-10 4-17 2-5-1-8-3-9-5-1-1-2-2-1-3 1-1 2-1 3-1 1 0 3 1 3 2 0 6-1 12-8 16-3 2-8 3-13 2-3-1-6-1-8-4-6-5-5-12-5-15" stroke="#203FEF" stroke-width="2" stroke-linecap="round"/>
</svg>
