<svg width="322" height="306" viewBox="0 0 322 306" fill="none" xmlns="http://www.w3.org/2000/svg">
<path d="M218 120C218 128.94 219.98 144.96 224.15 148.99C226.18 150.952 229.65 151 232.645 150.835C237.964 150.542 243.64 146.34 251.14 146.495C253.777 146.55 254.66 150.32 255.66 153.805C258.195 162.639 253.34 167.64 253.165 174.475C253.037 179.476 259.98 181.66 264.815 183.825C268.977 185.689 272.98 188.32 282.795 197.96C288.508 203.571 290.98 208.98 294.82 213.815C296.458 215.878 297.33 217.99 297.995 220.315C299.828 226.723 295.01 231.99 293.51 234.645C292.653 236.161 293 238.62 293.66 240.635C296.627 249.692 306.64 254.32 311.815 257.985C316.354 261.2 318.99 264.32 320.49 267.145C321.235 268.549 321 270.3 320.01 272.14C315.591 280.354 308.36 282.32 300.88 285.32C277.289 294.782 261.02 287.68 256.185 284.68C250.862 281.377 248.68 275.36 245.845 270.85C242.419 265.4 238.02 260.36 234.015 257.175C232.322 255.829 228.36 256 223.535 256.165C212.012 256.559 200.36 272.3 194.525 278.805C186.601 287.639 183.02 292.64 177.855 297.65C172.606 302.741 160.74 304.32 149.87 304.835C144.702 305.08 131.44 298.06 112.47 286.75C103.899 281.64 98.12 276.76 85.655 264.645C73.19 252.53 54.38 233.06 43.535 221.38C29.9698 206.77 25.03 197.72 19.87 188.895C14.8715 180.346 11.02 176.02 8.00999 171.185C5.24236 166.739 3.00999 163.01 2.00499 161.51C1.721 161.086 2.97999 161 3.98499 161.165C10.6567 162.26 23.26 172.96 36.955 178.485C44.6657 181.596 62.86 184.64 82.115 189.32C88.9117 190.972 95.31 192 98.48 191.34C100.428 190.934 96.68 186.02 93.855 182.195C91.0578 178.408 81.74 166.77 68.925 147.805C58.758 132.759 54.68 123.02 52.02 118.7C46.6101 109.914 38.4 93.14 33.84 82.85C33.3245 81.6868 32.68 80.36 33 79.35C33.7069 77.1187 39.3 77 45.125 77.33C53.8251 77.8229 67.9 89.6 78.97 97.81C82.8991 100.724 88.3 105.3 94.62 111.95C100.636 118.28 107.95 126.62 118.75 135.435C137.38 150.641 144.98 148.66 149.65 150.165C150.623 150.478 151.32 149.02 151.825 130.855C152.33 112.69 152.66 77.38 152.995 58.2C153.441 32.6741 154.66 26.02 155.165 18.695C155.352 15.981 156 9.39001 156.33 1.88001C156.374 0.887745 159.32 6.97001 165.94 18.73C170.975 27.6744 180.48 42.04 186.23 50.675C196.75 66.4727 200.98 74.3 202.995 80.645C206.222 90.8073 205.98 107.98 210.15 111.32C211.32 112.32 212.64 113.64 213.65 114.815C214.66 115.99 215.32 116.98 217 119" stroke="#E34864" stroke-width="2" stroke-linecap="round"/>
</svg>
