<svg width="166" height="96" viewBox="0 0 166 96" fill="none" xmlns="http://www.w3.org/2000/svg">
<path d="M82 38C80.01 37.01 76.02 32.36 69.69 25.525C67.5077 23.1686 66.01 21.01 62.53 18.85C56.6556 15.2039 46.72 15 38.06 15.495C29.4674 15.9862 23.7 24.64 16.525 34.295C11.544 40.9977 8.68 46.64 6.01 51.15C3.119 56.0333 2.34 61.64 1.835 65.985C1.25033 71.0155 2.32 76.98 5.985 83.475C9.40479 89.5355 16.98 91.66 25.78 93.66C49.7479 99.1073 63.64 85.02 68.98 80.85C74.4703 76.5626 78.64 68.72 80.33 62.85C82.067 56.8167 84 51.02 84.995 45.19C86.0028 39.2848 87.66 33.36 90.155 27.025C93.272 19.1108 101.64 14.68 107.145 11.18C113.252 7.29755 120.96 4.68003 133.115 2.34003C140.139 0.987795 145.32 2.33003 148.805 4.31503C159.779 10.5657 161.64 19.96 163.83 25.15C165.977 30.2383 163.02 43.9 160.175 52.98C158.487 58.3682 154.36 64.96 150.515 71.145C146.64 77.3787 139.7 76.66 126.55 76.67C119.711 76.6752 116.02 72.68 110.52 67.355C102.83 59.9093 93.34 48.02 91.01 44.015C88.6244 39.9145 84.02 37.68 80.015 35.84C79.01 35.34 78.02 34.68 77.015 34.175C76.01 33.67 75.02 33.34 72 32" stroke="black" stroke-width="2" stroke-linecap="round"/>
</svg>
